<?xml version="1.0" standalone="no"?>
<!DOCTYPE svg PUBLIC "-//W3C//DTD SVG 20010904//EN"
 "http://www.w3.org/TR/2001/REC-SVG-20010904/DTD/svg10.dtd">
<svg version="1.0" xmlns="http://www.w3.org/2000/svg"
 width="3000.000000pt" height="3000.000000pt" viewBox="0 0 3000.000000 3000.000000"
 preserveAspectRatio="xMidYMid meet">

<g transform="translate(0.000000,3000.000000) scale(0.100000,-0.100000)"
fill="#000000" stroke="none">
<path d="M11590 15525 l0 -995 150 0 150 0 0 418 c0 329 3 432 15 487 29 138
95 229 203 282 51 25 68 28 152 28 65 -1 107 -6 131 -17 47 -20 116 -82 136
-122 43 -84 46 -112 50 -603 l5 -473 149 0 150 0 -3 543 c-3 521 -4 544 -25
604 -70 207 -242 323 -478 323 -193 0 -345 -75 -437 -216 l-43 -65 -3 400 -2
401 -150 0 -150 0 0 -995z"/>
<path d="M12942 16487 c-20 -21 -22 -34 -22 -148 0 -180 -18 -169 281 -169
297 0 279 -11 279 171 0 180 18 169 -281 169 -233 0 -236 0 -257 -23z"/>
<path d="M8673 16473 c4 -22 466 -1659 533 -1890 l15 -53 182 0 182 0 214 728
c118 400 217 733 220 740 4 7 99 -319 212 -725 l205 -738 184 0 185 0 290 980
291 980 -169 3 c-94 1 -172 1 -174 -2 -2 -2 -96 -358 -207 -792 -112 -433
-205 -783 -208 -778 -3 5 -94 353 -202 774 -108 421 -199 773 -202 783 -5 16
-21 17 -187 15 l-182 -3 -217 -785 c-119 -432 -217 -789 -218 -795 -1 -5 -5 0
-10 11 -8 21 -400 1556 -400 1568 0 3 -77 6 -171 6 l-171 0 5 -27z"/>
<path d="M13930 16366 l-145 -81 -3 -163 -2 -162 -75 0 -75 0 0 -100 0 -100
75 0 75 0 0 -615 0 -615 150 0 150 0 0 615 0 615 75 0 75 0 0 100 0 100 -75 0
-75 0 -2 244 -3 243 -145 -81z"/>
<path d="M16100 16366 l-145 -81 -3 -163 -2 -162 -75 0 -75 0 0 -100 0 -100
75 0 75 0 0 -615 0 -615 150 0 150 0 0 615 0 615 75 0 75 0 0 100 0 100 -75 0
-75 0 -2 244 -3 243 -145 -81z"/>
<path d="M14918 15990 c-172 -31 -330 -126 -426 -254 -157 -212 -201 -508
-117 -775 87 -274 325 -452 625 -468 259 -14 489 96 603 288 41 69 87 202 87
250 l0 29 -139 0 c-145 0 -151 -2 -151 -45 0 -39 -46 -130 -90 -178 -95 -104
-245 -142 -388 -98 -85 25 -144 68 -194 141 -40 56 -85 177 -76 201 3 8 165
72 359 143 734 267 679 245 679 275 0 15 -7 52 -16 82 -58 196 -210 339 -419
395 -70 18 -268 27 -337 14z m294 -252 c63 -30 120 -85 149 -145 12 -24 20
-45 18 -47 -7 -6 -720 -266 -730 -266 -13 0 -11 65 6 145 37 172 136 288 285
330 80 22 203 14 272 -17z"/>
<path d="M17115 15994 c-11 -2 -45 -9 -75 -15 -81 -16 -206 -78 -277 -137
-230 -192 -322 -565 -217 -882 71 -212 226 -367 439 -437 70 -23 98 -26 215
-27 117 -1 145 2 208 23 80 26 165 77 225 133 l37 35 0 -78 0 -79 155 0 155 0
0 715 0 715 -155 0 -155 0 0 -72 0 -72 -37 36 c-96 91 -224 139 -388 144 -60
2 -119 1 -130 -2z m276 -242 c116 -32 220 -107 258 -186 20 -39 21 -60 21
-312 0 -269 0 -270 -25 -321 -29 -58 -103 -131 -163 -162 -171 -87 -399 -59
-533 66 -96 90 -140 212 -140 393 0 195 45 324 148 421 112 106 277 144 434
101z"/>
<path d="M18885 15986 c-87 -20 -181 -65 -247 -119 l-58 -47 0 70 0 70 -150 0
-150 0 0 -1000 0 -1000 150 0 150 0 0 366 0 366 55 -51 c117 -106 273 -157
455 -148 178 9 314 65 435 178 160 151 233 346 222 603 -9 232 -71 381 -216
526 -93 92 -179 143 -296 175 -83 22 -274 28 -350 11z m219 -231 c173 -37 294
-170 331 -368 41 -218 -7 -430 -123 -546 -171 -170 -509 -156 -659 27 -66 81
-73 118 -73 391 0 131 5 252 10 273 15 52 97 139 168 176 113 61 216 75 346
47z"/>
<path d="M13265 15956 c-37 -17 -70 -52 -84 -89 -7 -19 -11 -243 -11 -683 l0
-654 155 0 155 0 -2 669 c-3 658 -3 670 -24 697 -48 64 -126 89 -189 60z"/>
</g>
</svg>
